<svg xmlns="http://www.w3.org/2000/svg" viewBox="0 0 51.116 58.217">
  <path id="Path_1003" data-name="Path 1003" d="M.584,57.62a3.728,3.728,0,0,0,2.154.417H7.91a5.235,5.235,0,0,0,2.873-.417,6.824,6.824,0,0,0,2.2-2.267l4.777-6.316,7.15-11.589,4.031-6.533a27.025,27.025,0,0,0,2.564-4.9A24.112,24.112,0,0,0,32,21.37V.038H16.225V19.992a6.919,6.919,0,0,1,0,2.842,11.418,11.418,0,0,1-.947,2.369L7.11,39.824a3.255,3.255,0,0,1-1.66,1.638,7.12,7.12,0,0,1-2.879.326H0V55.837A2.342,2.342,0,0,0,.584,57.62Z" transform="translate(0.005 -0.038)" fill="currentColor"/>
  <path id="Rectangle_4761" data-name="Rectangle 4761" d="M0,0H11a5,5,0,0,1,5,5V56a2,2,0,0,1-2,2H2a2,2,0,0,1-2-2V0A0,0,0,0,1,0,0Z" transform="translate(35.116 0.217)" fill="currentColor"/>
</svg>
