<svg xmlns="http://www.w3.org/2000/svg" width="129.002" height="128.998" viewBox="0 0 129.002 128.998">
  <path id="Subtraction_17" data-name="Subtraction 17" d="M-14703.243-8959h-58.253c-1.552,0-3.094-.054-4.584-.16v-25.1a40.83,40.83,0,0,0,4.584.261,39.239,39.239,0,0,0,15.371-3.107,39.233,39.233,0,0,0,12.558-8.461,39.337,39.337,0,0,0,8.465-12.554,39.258,39.258,0,0,0,3.1-15.379,39.843,39.843,0,0,0-.544-6.574h25.217a65.635,65.635,0,0,1,.327,6.574v58.261A6.249,6.249,0,0,1-14703.243-8959Zm-65.754-.428a64.212,64.212,0,0,1-17.607-4.64,64.293,64.293,0,0,1-20.5-13.823,64.205,64.205,0,0,1-13.822-20.5A64.128,64.128,0,0,1-14826-9023.5a64.12,64.12,0,0,1,5.072-25.1,64.26,64.26,0,0,1,13.822-20.5c.25-.25.5-.5.755-.743l17.363,17.983c-.14.136-.285.277-.444.437a39.547,39.547,0,0,0-8.461,12.559,39.176,39.176,0,0,0-3.106,15.37,39.233,39.233,0,0,0,3.106,15.379,39.419,39.419,0,0,0,8.461,12.554,39.374,39.374,0,0,0,12.559,8.461,39.35,39.35,0,0,0,7.877,2.4v25.283Zm7.5-27.571a36.833,36.833,0,0,1-4.584-.287v-25.792a17.018,17.018,0,0,1,17-17h23.49a36.767,36.767,0,0,1,.592,6.574A36.542,36.542,0,0,1-14761.5-8987Zm-7.5-.774a36.225,36.225,0,0,1-11.509-4.576,36.7,36.7,0,0,1-9.194-8,36.464,36.464,0,0,1-6.091-10.646,36.335,36.335,0,0,1-2.206-12.5,36.54,36.54,0,0,1,36.5-36.5,36.288,36.288,0,0,1,12.021,2.035,36.306,36.306,0,0,1,10.345,5.637,36.847,36.847,0,0,1,7.974,8.555,36.362,36.362,0,0,1,4.9,10.771H-14749a19.868,19.868,0,0,0-14.139,5.856A19.886,19.886,0,0,0-14769-9013v25.227Zm71.306-45.227h-25.454a39.209,39.209,0,0,0-1.957-5.871,39.342,39.342,0,0,0-8.465-12.559,39.3,39.3,0,0,0-12.558-8.465,39.286,39.286,0,0,0-15.371-3.1,39.323,39.323,0,0,0-15.378,3.1,39.48,39.48,0,0,0-9.882,6.021l-17.394-18.014a64.229,64.229,0,0,1,17.545-11.043A64.092,64.092,0,0,1-14761.5-9088a64.063,64.063,0,0,1,25.1,5.068,64.243,64.243,0,0,1,20.5,13.823,64.251,64.251,0,0,1,13.822,20.5,63.776,63.776,0,0,1,4.376,15.6Z" transform="translate(14826.001 9088)" fill="#fff"/>
</svg>
