<svg xmlns="http://www.w3.org/2000/svg" viewBox="0 0 197.001 197.817">
  <g id="Component_1_1" data-name="Component 1 – 1" transform="translate(0 74.67)">
    <path id="Path_6" data-name="Path 6" d="M-920,12486s-62.7,38.575-72,18.675-10.7-18.45-11-18.675S-920,12486-920,12486Z" transform="translate(1003.001 -12461.9)" fill="#fff"/>
    <path id="Path_8" data-name="Path 8" d="M-1003,12486s13.22,38.575,15.181,18.675,2.256-18.45,2.319-18.675S-1003,12486-1003,12486Z" transform="translate(1086.001 -12478.077)" fill="#fff"/>
    <path id="Path_7" data-name="Path 7" d="M-920,12510.277s-62.7-38.575-72-18.675-10.7,18.45-11,18.675S-920,12510.277-920,12510.277Z" transform="translate(1003.001 -12485.9)" fill="#fff"/>
    <path id="Path_9" data-name="Path 9" d="M-1003,12510.277s13.22-38.575,15.18-18.675,2.256,18.45,2.319,18.675S-1003,12510.277-1003,12510.277Z" transform="translate(1086.002 -12473.662)" fill="#fff"/>
  </g>
  <g id="Component_1_3" data-name="Component 1 – 3" transform="matrix(-0.017, -1, 1, -0.017, 75.985, 197.817)">
    <path id="Path_6-2" data-name="Path 6" d="M-920,12486s-62.7,38.575-72,18.675-10.7-18.45-11-18.675S-920,12486-920,12486Z" transform="translate(1003.001 -12461.9)" fill="#fff"/>
    <path id="Path_8-2" data-name="Path 8" d="M-1003,12486s13.22,38.575,15.181,18.675,2.256-18.45,2.319-18.675S-1003,12486-1003,12486Z" transform="translate(1086.001 -12478.077)" fill="#fff"/>
    <path id="Path_7-2" data-name="Path 7" d="M-920,12510.277s-62.7-38.575-72-18.675-10.7,18.45-11,18.675S-920,12510.277-920,12510.277Z" transform="translate(1003.001 -12485.9)" fill="#fff"/>
    <path id="Path_9-2" data-name="Path 9" d="M-1003,12510.277s13.22-38.575,15.18-18.675,2.256,18.45,2.319,18.675S-1003,12510.277-1003,12510.277Z" transform="translate(1086.002 -12473.662)" fill="#fff"/>
  </g>
  <g id="Component_1_5" data-name="Component 1 – 5" transform="translate(151.011 185.698) rotate(-135)">
    <path id="Path_6-3" data-name="Path 6" d="M-920,12486s-62.7,38.575-72,18.675-10.7-18.45-11-18.675S-920,12486-920,12486Z" transform="translate(1003.001 -12461.9)" fill="#fff"/>
    <path id="Path_8-3" data-name="Path 8" d="M-1003,12486s13.22,38.575,15.181,18.675,2.256-18.45,2.319-18.675S-1003,12486-1003,12486Z" transform="translate(1086.001 -12478.077)" fill="#fff"/>
    <path id="Path_7-3" data-name="Path 7" d="M-920,12510.277s-62.7-38.575-72-18.675-10.7,18.45-11,18.675S-920,12510.277-920,12510.277Z" transform="translate(1003.001 -12485.9)" fill="#fff"/>
    <path id="Path_9-3" data-name="Path 9" d="M-1003,12510.277s13.22-38.575,15.18-18.675,2.256,18.45,2.319,18.675S-1003,12510.277-1003,12510.277Z" transform="translate(1086.002 -12473.662)" fill="#fff"/>
  </g>
  <g id="Component_1_7" data-name="Component 1 – 7" transform="translate(11.711 151.42) rotate(-45)">
    <path id="Path_6-4" data-name="Path 6" d="M-920,12486s-62.7,38.575-72,18.675-10.7-18.45-11-18.675S-920,12486-920,12486Z" transform="translate(1003.001 -12461.9)" fill="#fff"/>
    <path id="Path_8-4" data-name="Path 8" d="M-1003,12486s13.22,38.575,15.181,18.675,2.256-18.45,2.319-18.675S-1003,12486-1003,12486Z" transform="translate(1086.001 -12478.077)" fill="#fff"/>
    <path id="Path_7-4" data-name="Path 7" d="M-920,12510.277s-62.7-38.575-72-18.675-10.7,18.45-11,18.675S-920,12510.277-920,12510.277Z" transform="translate(1003.001 -12485.9)" fill="#fff"/>
    <path id="Path_9-4" data-name="Path 9" d="M-1003,12510.277s13.22-38.575,15.18-18.675,2.256,18.45,2.319,18.675S-1003,12510.277-1003,12510.277Z" transform="translate(1086.002 -12473.662)" fill="#fff"/>
  </g>
  <g id="Component_1_2" data-name="Component 1 – 2" transform="translate(197.001 123.147) rotate(180)">
    <path id="Path_6-5" data-name="Path 6" d="M-920,12486s-62.7,38.575-72,18.675-10.7-18.45-11-18.675S-920,12486-920,12486Z" transform="translate(1003.001 -12461.9)" fill="#fff"/>
    <path id="Path_8-5" data-name="Path 8" d="M-1003,12486s13.22,38.575,15.181,18.675,2.256-18.45,2.319-18.675S-1003,12486-1003,12486Z" transform="translate(1086.001 -12478.077)" fill="#fff"/>
    <path id="Path_7-5" data-name="Path 7" d="M-920,12510.277s-62.7-38.575-72-18.675-10.7,18.45-11,18.675S-920,12510.277-920,12510.277Z" transform="translate(1003.001 -12485.9)" fill="#fff"/>
    <path id="Path_9-5" data-name="Path 9" d="M-1003,12510.277s13.22-38.575,15.18-18.675,2.256,18.45,2.319,18.675S-1003,12510.277-1003,12510.277Z" transform="translate(1086.002 -12473.662)" fill="#fff"/>
  </g>
  <g id="Component_1_4" data-name="Component 1 – 4" transform="matrix(0.017, 1, -1, 0.017, 121.016, 0)">
    <path id="Path_6-6" data-name="Path 6" d="M-920,12486s-62.7,38.575-72,18.675-10.7-18.45-11-18.675S-920,12486-920,12486Z" transform="translate(1003.001 -12461.9)" fill="#fff"/>
    <path id="Path_8-6" data-name="Path 8" d="M-1003,12486s13.22,38.575,15.181,18.675,2.256-18.45,2.319-18.675S-1003,12486-1003,12486Z" transform="translate(1086.001 -12478.077)" fill="#fff"/>
    <path id="Path_7-6" data-name="Path 7" d="M-920,12510.277s-62.7-38.575-72-18.675-10.7,18.45-11,18.675S-920,12510.277-920,12510.277Z" transform="translate(1003.001 -12485.9)" fill="#fff"/>
    <path id="Path_9-6" data-name="Path 9" d="M-1003,12510.277s13.22-38.575,15.18-18.675,2.256,18.45,2.319,18.675S-1003,12510.277-1003,12510.277Z" transform="translate(1086.002 -12473.662)" fill="#fff"/>
  </g>
  <g id="Component_1_6" data-name="Component 1 – 6" transform="translate(45.989 12.119) rotate(45)">
    <path id="Path_6-7" data-name="Path 6" d="M-920,12486s-62.7,38.575-72,18.675-10.7-18.45-11-18.675S-920,12486-920,12486Z" transform="translate(1003.001 -12461.9)" fill="#fff"/>
    <path id="Path_8-7" data-name="Path 8" d="M-1003,12486s13.22,38.575,15.181,18.675,2.256-18.45,2.319-18.675S-1003,12486-1003,12486Z" transform="translate(1086.001 -12478.077)" fill="#fff"/>
    <path id="Path_7-7" data-name="Path 7" d="M-920,12510.277s-62.7-38.575-72-18.675-10.7,18.45-11,18.675S-920,12510.277-920,12510.277Z" transform="translate(1003.001 -12485.9)" fill="#fff"/>
    <path id="Path_9-7" data-name="Path 9" d="M-1003,12510.277s13.22-38.575,15.18-18.675,2.256,18.45,2.319,18.675S-1003,12510.277-1003,12510.277Z" transform="translate(1086.002 -12473.662)" fill="#fff"/>
  </g>
  <g id="Component_1_8" data-name="Component 1 – 8" transform="translate(185.289 46.397) rotate(135)">
    <path id="Path_6-8" data-name="Path 6" d="M-920,12486s-62.7,38.575-72,18.675-10.7-18.45-11-18.675S-920,12486-920,12486Z" transform="translate(1003.001 -12461.9)" fill="#fff"/>
    <path id="Path_8-8" data-name="Path 8" d="M-1003,12486s13.22,38.575,15.181,18.675,2.256-18.45,2.319-18.675S-1003,12486-1003,12486Z" transform="translate(1086.001 -12478.077)" fill="#fff"/>
    <path id="Path_7-8" data-name="Path 7" d="M-920,12510.277s-62.7-38.575-72-18.675-10.7,18.45-11,18.675S-920,12510.277-920,12510.277Z" transform="translate(1003.001 -12485.9)" fill="#fff"/>
    <path id="Path_9-8" data-name="Path 9" d="M-1003,12510.277s13.22-38.575,15.18-18.675,2.256,18.45,2.319,18.675S-1003,12510.277-1003,12510.277Z" transform="translate(1086.002 -12473.662)" fill="#fff"/>
  </g>
</svg>
